
<?xml version="1.0" encoding="utf-8"?>
<svg version="1.1" xmlns:xlink="http://www.w3.org/1999/xlink" width="54px" height="44px" xmlns="http://www.w3.org/2000/svg">
    <g transform="matrix(1 0 0 1 -40 -110 )">
        <path d="M 16.8125 38.8125  C 17.6041666666667 38.0208333333333  18 37.0833333333333  18 36  C 18 34.9166666666667  17.6041666666667 33.9791666666667  16.8125 33.1875  C 16.0208333333333 32.3958333333333  15.0833333333333 32  14 32  C 12.9166666666667 32  11.9791666666667 32.3958333333333  11.1875 33.1875  C 10.3958333333333 33.9791666666667  10 34.9166666666667  10 36  C 10 37.0833333333333  10.3958333333333 38.0208333333333  11.1875 38.8125  C 11.9791666666667 39.6041666666667  12.9166666666667 40  14 40  C 15.0833333333333 40  16.0208333333333 39.6041666666667  16.8125 38.8125  Z M 6 19.0625  L 6 20  L 18 20  L 18 12  L 13.0625 12  C 12.7916666666667 12  12.5625 12.09375  12.375 12.28125  L 6.28125 18.375  C 6.09375 18.5625  6 18.7916666666667  6 19.0625  Z M 44.8125 38.8125  C 45.6041666666667 38.0208333333333  46 37.0833333333333  46 36  C 46 34.9166666666667  45.6041666666667 33.9791666666667  44.8125 33.1875  C 44.0208333333333 32.3958333333333  43.0833333333333 32  42 32  C 40.9166666666667 32  39.9791666666667 32.3958333333333  39.1875 33.1875  C 38.3958333333333 33.9791666666667  38 34.9166666666667  38 36  C 38 37.0833333333333  38.3958333333333 38.0208333333333  39.1875 38.8125  C 39.9791666666667 39.6041666666667  40.9166666666667 40  42 40  C 43.0833333333333 40  44.0208333333333 39.6041666666667  44.8125 38.8125  Z M 53.40625 0.593750000000002  C 53.8020833333333 0.989583333333327  54 1.45833333333333  54 2  L 54 34  C 54 34.3125  53.9583333333333 34.5885416666667  53.875 34.828125  C 53.7916666666667 35.0677083333333  53.6510416666667 35.2604166666667  53.453125 35.40625  C 53.2552083333333 35.5520833333333  53.0833333333333 35.671875  52.9375 35.765625  C 52.7916666666667 35.859375  52.546875 35.921875  52.203125 35.953125  C 51.859375 35.984375  51.625 36.0052083333333  51.5 36.015625  C 51.375 36.0260416666667  51.109375 36.0260416666667  50.703125 36.015625  C 50.296875 36.0052083333333  50.0625 36  50 36  C 50 38.2083333333333  49.21875 40.09375  47.65625 41.65625  C 46.09375 43.21875  44.2083333333333 44  42 44  C 39.7916666666667 44  37.90625 43.21875  36.34375 41.65625  C 34.78125 40.09375  34 38.2083333333333  34 36  L 22 36  C 22 38.2083333333333  21.21875 40.09375  19.65625 41.65625  C 18.09375 43.21875  16.2083333333333 44  14 44  C 11.7916666666667 44  9.90625 43.21875  8.34375 41.65625  C 6.78125 40.09375  6 38.2083333333333  6 36  L 4 36  C 3.9375 36  3.703125 36.0052083333333  3.296875 36.015625  C 2.890625 36.0260416666667  2.625 36.0260416666667  2.5 36.015625  C 2.375 36.0052083333333  2.140625 35.984375  1.796875 35.953125  C 1.453125 35.921875  1.20833333333333 35.859375  1.0625 35.765625  C 0.916666666666667 35.671875  0.744791666666667 35.5520833333333  0.546875 35.40625  C 0.348958333333333 35.2604166666667  0.208333333333333 35.0677083333333  0.125 34.828125  C 0.041666666666667 34.5885416666667  0 34.3125  0 34  C 0 33.4583333333333  0.197916666666667 32.9895833333333  0.59375 32.59375  C 0.989583333333334 32.1979166666667  1.45833333333333 32  2 32  L 2 22  C 2 21.8333333333333  1.99479166666667 21.46875  1.984375 20.90625  C 1.97395833333333 20.34375  1.97395833333333 19.9479166666667  1.984375 19.71875  C 1.99479166666667 19.4895833333333  2.02083333333333 19.1302083333333  2.0625 18.640625  C 2.10416666666667 18.1510416666667  2.171875 17.765625  2.265625 17.484375  C 2.359375 17.203125  2.50520833333333 16.8854166666667  2.703125 16.53125  C 2.90104166666667 16.1770833333333  3.13541666666667 15.8645833333333  3.40625 15.59375  L 9.59375 9.40625  C 9.98958333333334 9.01041666666666  10.515625 8.67708333333333  11.171875 8.40625  C 11.828125 8.13541666666666  12.4375 8  13 8  L 18 8  L 18 2  C 18 1.45833333333333  18.1979166666667 0.989583333333327  18.59375 0.593750000000002  C 18.9895833333333 0.197916666666663  19.4583333333333 0  20 0  L 52 0  C 52.5416666666667 0  53.0104166666667 0.197916666666663  53.40625 0.593750000000002  Z " fill-rule="nonzero" fill="#027db4" stroke="none" transform="matrix(1 0 0 1 40 110 )" />
    </g>
</svg>