
<?xml version="1.0" encoding="utf-8"?>
<svg version="1.1" xmlns:xlink="http://www.w3.org/1999/xlink" width="18px" height="21px" xmlns="http://www.w3.org/2000/svg">
  <g transform="matrix(1 0 0 1 -20 -130 )">
    <path d="M 13.546875 0.796875000000001  L 17.203125 4.453125  C 17.421875 4.671875  17.609375 4.96875  17.765625 5.34375  C 17.921875 5.71875  18 6.0625  18 6.375  L 18 19.875  C 18 20.1875  17.890625 20.453125  17.671875 20.671875  C 17.453125 20.890625  17.1875 21  16.875 21  L 1.125 21  C 0.8125 21  0.546875 20.890625  0.328125 20.671875  C 0.109375 20.453125  0 20.1875  0 19.875  L 0 1.125  C 0 0.812499999999999  0.109375 0.546874999999999  0.328125 0.328125  C 0.546875 0.109375000000001  0.8125 0  1.125 0  L 11.625 0  C 11.9375 0  12.28125 0.0781250000000009  12.65625 0.234375  C 13.03125 0.390625  13.328125 0.578124999999999  13.546875 0.796875000000001  Z M 12.48046875 1.8515625  C 12.38671875 1.7578125  12.2265625 1.671875  12 1.59375  L 12 6  L 16.40625 6  C 16.328125 5.7734375  16.2421875 5.61328125  16.1484375 5.51953125  L 12.48046875 1.8515625  Z M 1.5 19.5  L 16.5 19.5  L 16.5 7.5  L 11.625 7.5  C 11.3125 7.5  11.046875 7.390625  10.828125 7.171875  C 10.609375 6.953125  10.5 6.6875  10.5 6.375  L 10.5 1.5  L 1.5 1.5  L 1.5 19.5  Z M 5.953125 16.7578125  L 4.875 16.7578125  L 4.875 18  L 8.70703125 18  L 8.70703125 16.7578125  L 7.6171875 16.7578125  L 7.6171875 14.80078125  L 9.22265625 14.80078125  C 9.81640625 14.80078125  10.27734375 14.7421875  10.60546875 14.625  C 11.12890625 14.4453125  11.544921875 14.10546875  11.853515625 13.60546875  C 12.162109375 13.10546875  12.31640625 12.53515625  12.31640625 11.89453125  C 12.31640625 11.26171875  12.171875 10.7109375  11.8828125 10.2421875  C 11.59375 9.7734375  11.203125 9.43359375  10.7109375 9.22265625  C 10.3359375 9.07421875  9.828125 9  9.1875 9  L 4.875 9  L 4.875 10.25390625  L 5.953125 10.25390625  L 5.953125 16.7578125  Z M 9.92578125 13.30078125  C 9.68359375 13.41796875  9.37890625 13.4765625  9.01171875 13.4765625  L 7.6171875 13.4765625  L 7.6171875 10.3359375  L 9.0234375 10.3359375  C 9.4296875 10.3359375  9.75390625 10.40625  9.99609375 10.546875  C 10.43359375 10.8046875  10.65234375 11.25390625  10.65234375 11.89453125  C 10.65234375 12.58984375  10.41015625 13.05859375  9.92578125 13.30078125  Z " fill-rule="nonzero" fill="#ff0000" stroke="none" transform="matrix(1 0 0 1 20 130 )" />
  </g>
</svg>