<svg version="1.1" xmlns:xlink="http://www.w3.org/1999/xlink" width="48px" height="48px" xmlns="http://www.w3.org/2000/svg">
  <g transform="matrix(1 0 0 1 -42 -110 )">
    <path d="M 7.8125 9  L 20 9  L 20 30.3571428571429  C 19.6428571428571 30.8407738095238  19.4661458333333 31.2593005952381  19.1127232142857 31.6127232142857  C 18.7593005952381 31.9661458333333  18.3407738095238 32.1428571428571  18 32.1428571428571  L 18 48.2142857142857  C 17.8571428571429 48.6979166666667  17.6804315476191 49.1164434523809  17.3270089285714 49.4698660714286  C 16.9735863095238 49.8232886904762  16.5550595238095 50  16.0714285714286 50  L 1.78571428571429 50  C 1.30208333333333 50  0.883556547619048 49.8232886904762  0.530133928571429 49.4698660714286  C 0.17671130952381 49.1164434523809  0 48.6979166666667  0 48.2142857142857  L 0 33.9285714285714  L 6.94754464285714 9.5703125  C 7.07775297619048 9.14248511904762  7.36607142857143 8.92857142857143  7.8125 9  Z M 22 8.92857142857143  L 28 8.92857142857143  L 28 28.5714285714286  L 22 28.5714285714286  L 22 8.92857142857143  Z M 43.0524553571429 9.5703125  L 50 33.9285714285714  L 50 48.2142857142857  C 50 48.6979166666667  49.8232886904762 49.1164434523809  49.4698660714286 49.4698660714286  C 49.116443452381 49.8232886904762  48.6979166666667 50  48.2142857142857 50  L 33.9285714285714 50  C 33.4449404761905 50  33.0264136904762 49.8232886904762  32.6729910714286 49.4698660714286  C 32.319568452381 49.1164434523809  32.1428571428571 48.6979166666667  32 48.2142857142857  L 32 32.1428571428571  C 31.6592261904762 32.1428571428571  31.2406994047619 31.9661458333333  30.8872767857143 31.6127232142857  C 30.5338541666667 31.2593005952381  30.3571428571429 30.8407738095238  30 30.3571428571429  L 30 9  L 42.1875 9  C 42.6339285714286 8.92857142857143  42.9222470238095 9.14248511904762  43.0524553571429 9.5703125  Z M 20.2845982142857 0.25111607142857  C 20.4520089285714 0.418526785714285  20.5357142857143 0.632440476190471  20.5357142857143 0.892857142857145  L 20.5357142857143 7.14285714285715  L 10.7142857142857 7.14285714285715  L 10.7142857142857 0.892857142857145  C 10.7142857142857 0.632440476190471  10.7979910714286 0.418526785714285  10.9654017857143 0.25111607142857  C 11.1328125 0.0837053571428548  11.3467261904762 0  11.6071428571429 0  L 19.6428571428571 0  C 19.9032738095238 0  20.1171875 0.0837053571428548  20.2845982142857 0.25111607142857  Z M 39.0345982142857 0.25111607142857  C 39.2020089285714 0.418526785714285  39.2857142857143 0.632440476190471  39.2857142857143 0.892857142857145  L 39.2857142857143 7.14285714285715  L 29.4642857142857 7.14285714285715  L 29.4642857142857 0.892857142857145  C 29.4642857142857 0.632440476190471  29.5479910714286 0.418526785714285  29.7154017857143 0.25111607142857  C 29.8828125 0.0837053571428548  30.0967261904762 0  30.3571428571429 0  L 38.3928571428571 0  C 38.6532738095238 0  38.8671875 0.0837053571428548  39.0345982142857 0.25111607142857  Z " fill-rule="nonzero" fill="#027cb2" stroke="none" transform="matrix(1 0 0 1 42 110 )" />
  </g>
</svg>