
<?xml version="1.0" encoding="utf-8"?>
<svg version="1.1" xmlns:xlink="http://www.w3.org/1999/xlink" width="43px" height="50px" xmlns="http://www.w3.org/2000/svg">
    <g transform="matrix(1 0 0 1 -46 -110 )">
        <path d="M 43 5  L 35.4117647058823 5  L 35.4117647058823 2.5  C 35.4117647058823 1.125  34.2735294117647 0  32.8823529411765 0  L 2.52941176470588 0  C 1.13823529411765 0  0 1.125  0 2.5  L 0 12.5  C 0 13.875  1.13823529411765 15  2.52941176470588 15  L 32.8823529411765 15  C 34.2735294117647 15  35.4117647058823 13.875  35.4117647058823 12.5  L 35.4117647058823 10  L 38 10  L 38 20  L 13 20  L 13 47.5  C 12.6470588235294 48.875  13.7852941176471 50  15.1764705882353 50  L 20.2352941176471 50  C 21.6264705882353 50  22.7647058823529 48.875  22 47.5  L 22 25  L 43 25  L 43 5  Z " fill-rule="nonzero" fill="#027db4" stroke="none" transform="matrix(1 0 0 1 46 110 )" />
    </g>
</svg>