<?xml version="1.0" encoding="utf-8"?>
<svg version="1.1" width="18px" height="21px" xmlns="http://www.w3.org/2000/svg">
  <g transform="matrix(1 0 0 1 -20 -69 )">
    <path d="M 13.546875 0.796875000000001  L 17.203125 4.453125  C 17.421875 4.671875  17.609375 4.96875  17.765625 5.34375  C 17.921875 5.71875  18 6.0625  18 6.375  L 18 19.875  C 18 20.1875  17.890625 20.453125  17.671875 20.671875  C 17.453125 20.890625  17.1875 21  16.875 21  L 1.125 21  C 0.8125 21  0.546875 20.890625  0.328125 20.671875  C 0.109375 20.453125  0 20.1875  0 19.875  L 0 1.125  C 0 0.812499999999999  0.109375 0.546874999999999  0.328125 0.328125  C 0.546875 0.109375000000001  0.8125 0  1.125 0  L 11.625 0  C 11.9375 0  12.28125 0.0781250000000009  12.65625 0.234375  C 13.03125 0.390625  13.328125 0.578124999999999  13.546875 0.796875000000001  Z M 12.48046875 1.8515625  C 12.38671875 1.7578125  12.2265625 1.671875  12 1.59375  L 12 6  L 16.40625 6  C 16.328125 5.7734375  16.2421875 5.61328125  16.1484375 5.51953125  L 12.48046875 1.8515625  Z M 1.5 19.5  L 16.5 19.5  L 16.5 7.5  L 11.625 7.5  C 11.3125 7.5  11.046875 7.390625  10.828125 7.171875  C 10.609375 6.953125  10.5 6.6875  10.5 6.375  L 10.5 1.5  L 1.5 1.5  L 1.5 19.5  Z M 6.24609375 9  L 2.73046875 9  L 2.73046875 10.25390625  L 3.55078125 10.25390625  L 5.47265625 18  L 7.3359375 18  L 8.8359375 12.31640625  C 8.890625 12.16015625  8.9296875 11.98046875  8.953125 11.77734375  C 8.96875 11.65234375  8.9765625 11.55859375  8.9765625 11.49609375  L 9.0234375 11.49609375  L 9.05859375 11.77734375  C 9.06640625 11.80078125  9.080078125 11.87890625  9.099609375 12.01171875  C 9.119140625 12.14453125  9.140625 12.24609375  9.1640625 12.31640625  L 10.6640625 18  L 12.52734375 18  L 14.44921875 10.25390625  L 15.26953125 10.25390625  L 15.26953125 9  L 11.75390625 9  L 11.75390625 10.25390625  L 12.80859375 10.25390625  L 11.6484375 15.38671875  C 11.609375 15.54296875  11.58203125 15.72265625  11.56640625 15.92578125  L 11.54296875 16.171875  L 11.49609375 16.171875  C 11.49609375 16.1484375  11.494140625 16.123046875  11.490234375 16.095703125  C 11.486328125 16.068359375  11.48046875 16.037109375  11.47265625 16.001953125  C 11.46484375 15.966796875  11.4609375 15.94140625  11.4609375 15.92578125  C 11.453125 15.88671875  11.4375 15.8046875  11.4140625 15.6796875  C 11.390625 15.5546875  11.37109375 15.45703125  11.35546875 15.38671875  L 9.66796875 9  L 8.33203125 9  L 6.64453125 15.38671875  C 6.62890625 15.45703125  6.611328125 15.552734375  6.591796875 15.673828125  C 6.572265625 15.794921875  6.55859375 15.87890625  6.55078125 15.92578125  L 6.50390625 16.171875  L 6.45703125 16.171875  L 6.43359375 15.92578125  C 6.41796875 15.72265625  6.390625 15.54296875  6.3515625 15.38671875  L 5.19140625 10.25390625  L 6.24609375 10.25390625  L 6.24609375 9  Z " fill-rule="nonzero" fill="#0000bf" stroke="none" transform="matrix(1 0 0 1 20 69 )" />
  </g>
</svg>