
<?xml version="1.0" encoding="utf-8"?>
<svg version="1.1" xmlns:xlink="http://www.w3.org/1999/xlink" width="54px" height="50px" xmlns="http://www.w3.org/2000/svg">
    <g transform="matrix(1 0 0 1 -40 -110 )">
        <path d="M 23.090625 30.1249290176036  C 24.496875 28.7052810902896  25.2 26.9922392579974  25.2 24.9858035207269  C 25.2 22.9793677834564  24.496875 21.2663259511641  23.090625 19.8466780238501  C 21.684375 18.4270300965361  19.9875 17.717206132879  18 17.717206132879  C 16.0125 17.717206132879  14.315625 18.4270300965361  12.909375 19.8466780238501  C 11.503125 21.2663259511641  10.8 22.9793677834564  10.8 24.9858035207269  C 10.8 26.9922392579974  11.503125 28.7052810902896  12.909375 30.1249290176036  C 14.315625 31.5445769449177  16.0125 32.2544009085747  18 32.2544009085747  C 19.9875 32.2544009085747  21.684375 31.5445769449177  23.090625 30.1249290176036  Z M 45.7453125 42.0925610448609  C 46.4484375 41.3827370812039  46.8 40.5262161650577  46.8 39.5229982964225  C 46.8 38.5387090668181  46.44375 37.6869203104297  45.73125 36.9676320272572  C 45.01875 36.2483437440848  44.175 35.8886996024986  43.2 35.8886996024986  C 42.225 35.8886996024986  41.38125 36.2483437440848  40.66875 36.9676320272572  C 39.95625 37.6869203104297  39.6 38.5387090668181  39.6 39.5229982964225  C 39.6 40.5262161650577  39.9515625 41.3827370812039  40.6546875 42.0925610448609  C 41.3578125 42.8023850085179  42.20625 43.1572969903464  43.2 43.1572969903464  C 44.19375 43.1572969903464  45.0421875 42.8023850085179  45.7453125 42.0925610448609  Z M 45.7453125 13.0181714934696  C 46.4484375 12.3083475298126  46.8 11.4518266136665  46.8 10.4486087450312  C 46.8 9.46431951542684  46.44375 8.61253075903842  45.73125 7.89324247586599  C 45.01875 7.17395419269354  44.175 6.81431005110733  43.2 6.81431005110733  C 42.225 6.81431005110733  41.38125 7.17395419269354  40.66875 7.89324247586599  C 39.95625 8.61253075903842  39.6 9.46431951542684  39.6 10.4486087450312  C 39.6 11.4518266136665  39.9515625 12.3083475298126  40.6546875 13.0181714934696  C 41.3578125 13.7279954571266  42.20625 14.0829074389551  43.2 14.0829074389551  C 44.19375 14.0829074389551  45.0421875 13.7279954571266  45.7453125 13.0181714934696  Z M 35.803125 21.8483816013629  C 35.934375 22.0092750331251  36 22.1938292636759  36 22.4020442930153  L 36 27.6547416240772  C 36 27.8440280143858  35.934375 28.0285822449366  35.803125 28.2084043157297  C 35.671875 28.3882263865228  35.521875 28.4876017414348  35.353125 28.5065303804656  L 30.99375 29.1879613855764  C 30.7875 29.8504637516563  30.4875 30.5697520348287  30.09375 31.3458262350937  C 30.73125 32.2544009085747  31.575 33.3427976528488  32.625 34.611016467916  C 32.75625 34.8192314972553  32.821875 35.0085178875639  32.821875 35.1788756388416  C 32.821875 35.4060193072118  32.75625 35.5858413780049  32.625 35.7183418512209  C 32.19375 36.2862010221465  31.4203125 37.1332576187772  30.3046875 38.259511641113  C 29.1890625 39.3857656634488  28.453125 39.9488926746167  28.096875 39.9488926746167  C 27.890625 39.9488926746167  27.69375 39.8826424380087  27.50625 39.7501419647927  L 24.271875 37.1947756956275  C 23.578125 37.5544198372137  22.85625 37.8478137421919  22.10625 38.0749574105622  C 21.9 40.1192504258944  21.684375 41.5862199507855  21.459375 42.4758659852357  C 21.328125 42.9301533219762  21.046875 43.1572969903464  20.615625 43.1572969903464  L 15.384375 43.1572969903464  C 15.178125 43.1572969903464  14.990625 43.0863145939807  14.821875 42.9443498012493  C 14.653125 42.8023850085179  14.559375 42.6367594169979  14.540625 42.4474730266894  L 13.89375 38.1033503691085  C 13.25625 37.9140639787999  12.553125 37.6206700738217  11.784375 37.2231686541738  L 8.465625 39.7501419647927  C 8.334375 39.8826424380087  8.146875 39.9488926746167  7.903125 39.9488926746167  C 7.696875 39.9488926746167  7.5 39.8731781184933  7.3125 39.7217490062465  C 4.6125 37.2042400151429  3.2625 35.6899488926746  3.2625 35.1788756388416  C 3.2625 35.0085178875639  3.328125 34.8286958167708  3.459375 34.6394094264622  C 3.646875 34.3744084800303  4.03125 33.8727995457127  4.6125 33.1345826235094  C 5.19375 32.3963657013061  5.634375 31.819042210865  5.934375 31.4026121521863  C 5.503125 30.5697520348287  5.175 29.7936778345637  4.95 29.0743895513913  L 0.675 28.3929585462805  C 0.4875 28.3740299072497  0.328125 28.2841188718531  0.196875 28.1232254400909  C 0.065625 27.9623320083286  0 27.7777777777778  0 27.5695627484384  L 0 22.3168654173765  C 0 22.127579027068  0.065625 21.9430247965171  0.196875 21.763202725724  C 0.328125 21.5833806549309  0.478125 21.4840053000189  0.646875 21.4650766609881  L 5.00625 20.7836456558773  C 5.2125 20.1211432897975  5.5125 19.401855006625  5.90625 18.62578080636  C 5.26875 17.717206132879  4.425 16.628809388605  3.375 15.3605905735378  C 3.24375 15.1523755441984  3.178125 14.9630891538898  3.178125 14.7927314026122  C 3.178125 14.5655877342419  3.24375 14.3763013439334  3.375 14.2248722316865  C 3.7875 13.6570130607609  4.55625 12.8146886238879  5.68125 11.6978989210676  C 6.80625 10.5811092182472  7.546875 10.022714366837  7.903125 10.022714366837  C 8.109375 10.022714366837  8.30625 10.088964603445  8.49375 10.221465076661  L 11.728125 12.7768313458262  C 12.365625 12.4361158432709  13.0875 12.1332576187772  13.89375 11.8682566723453  C 14.1 9.82396365701306  14.315625 8.36645845163732  14.540625 7.49574105621806  C 14.671875 7.04145371947757  14.953125 6.81431005110733  15.384375 6.81431005110733  L 20.615625 6.81431005110733  C 20.821875 6.81431005110733  21.009375 6.88529244747303  21.178125 7.02725724020443  C 21.346875 7.16922203293583  21.440625 7.3348476244558  21.459375 7.52413401476434  L 22.10625 11.8682566723453  C 22.74375 12.0575430626538  23.446875 12.350936967632  24.215625 12.74843838728  L 27.534375 10.221465076661  C 27.684375 10.088964603445  27.871875 10.022714366837  28.096875 10.022714366837  C 28.303125 10.022714366837  28.5 10.0984289229604  28.6875 10.2498580352073  C 31.3875 12.7673670263108  32.7375 14.2816581487791  32.7375 14.7927314026122  C 32.7375 14.944160514859  32.671875 15.1239825856521  32.540625 15.3321976149915  C 32.315625 15.6350558394851  31.921875 16.1461290933182  31.359375 16.8654173764906  C 30.796875 17.5847056596631  30.375 18.1525648305887  30.09375 18.5689948892675  C 30.525 19.4775695627484  30.84375 20.2536437630134  31.05 20.8972174900625  L 35.325 21.5502555366269  C 35.5125 21.5881128146886  35.671875 21.6874881696006  35.803125 21.8483816013629  Z M 49.809375 36.6553094832482  C 52.603125 36.939239068711  54 37.2326329736892  54 37.5354911981829  L 54 41.5105053946621  C 54 41.8133636191558  52.603125 42.106757524134  49.809375 42.3906871095968  C 49.584375 42.9017603634299  49.303125 43.3939049782321  48.965625 43.8671209540034  C 49.921875 46.0060571644899  50.4 47.3121332576188  50.4 47.7853492333901  C 50.4 47.8610637895135  50.3625 47.9273140261215  50.2875 47.9840999432141  C 48 49.3280333144047  46.8375 50  46.8 50  C 46.65 50  46.21875 49.5551769827749  45.50625 48.6655309483248  C 44.79375 47.7758849138747  44.30625 47.1323111868257  44.04375 46.7348097671777  C 43.66875 46.7726670452394  43.3875 46.7915956842703  43.2 46.7915956842703  C 43.0125 46.7915956842703  42.73125 46.7726670452394  42.35625 46.7348097671777  C 42.09375 47.1323111868257  41.60625 47.7758849138747  40.89375 48.6655309483248  C 40.18125 49.5551769827749  39.75 50  39.6 50  C 39.5625 50  38.4 49.3280333144047  36.1125 47.9840999432141  C 36.0375 47.9273140261215  36 47.8610637895135  36 47.7853492333901  C 36 47.3121332576188  36.478125 46.0060571644899  37.434375 43.8671209540034  C 37.096875 43.3939049782321  36.815625 42.9017603634299  36.590625 42.3906871095968  C 33.796875 42.106757524134  32.4 41.8133636191558  32.4 41.5105053946621  L 32.4 37.5354911981829  C 32.4 37.2326329736892  33.796875 36.939239068711  36.590625 36.6553094832482  C 36.834375 36.1063789513534  37.115625 35.6142343365512  37.434375 35.1788756388416  C 36.478125 33.0399394283551  36 31.7338633352262  36 31.2606473594549  C 36 31.1849328033314  36.0375 31.1186825667235  36.1125 31.0618966496309  C 36.1875 31.0240393715692  36.515625 30.8347529812607  37.096875 30.4940374787053  C 37.678125 30.1533219761499  38.23125 29.8315351126254  38.75625 29.5286768881317  C 39.28125 29.2258186636381  39.5625 29.0743895513913  39.6 29.0743895513913  C 39.75 29.0743895513913  40.18125 29.5144804088586  40.89375 30.3946621237933  C 41.60625 31.274843838728  42.09375 31.9136854060193  42.35625 32.3111868256672  C 42.73125 32.2733295476055  43.0125 32.2544009085747  43.2 32.2544009085747  C 43.3875 32.2544009085747  43.66875 32.2733295476055  44.04375 32.3111868256672  C 45 30.9672534544766  45.8625 29.9072496687488  46.63125 29.1311754684838  L 46.8 29.0743895513913  C 46.875 29.0743895513913  48.0375 29.7368919174711  50.2875 31.0618966496309  C 50.3625 31.1186825667235  50.4 31.1849328033314  50.4 31.2606473594549  C 50.4 31.7338633352262  49.921875 33.0399394283551  48.965625 35.1788756388416  C 49.284375 35.6142343365512  49.565625 36.1063789513534  49.809375 36.6553094832482  Z M 49.809375 7.5809199318569  C 52.603125 7.8648495173197  54 8.15824342229793  54 8.4611016467916  L 54 12.4361158432709  C 54 12.7389740677645  52.603125 13.0323679727428  49.809375 13.3162975582056  C 49.584375 13.8273708120386  49.303125 14.3195154268408  48.965625 14.7927314026122  C 49.921875 16.9316676130986  50.4 18.2377437062275  50.4 18.7109596819989  C 50.4 18.7866742381223  50.3625 18.8529244747303  50.2875 18.9097103918228  C 48 20.2536437630134  46.8375 20.9256104486087  46.8 20.9256104486087  C 46.65 20.9256104486087  46.21875 20.4807874313837  45.50625 19.5911413969336  C 44.79375 18.7014953624834  44.30625 18.0579216354344  44.04375 17.6604202157865  C 43.66875 17.6982774938482  43.3875 17.717206132879  43.2 17.717206132879  C 43.0125 17.717206132879  42.73125 17.6982774938482  42.35625 17.6604202157865  C 42.09375 18.0579216354344  41.60625 18.7014953624834  40.89375 19.5911413969336  C 40.18125 20.4807874313837  39.75 20.9256104486087  39.6 20.9256104486087  C 39.5625 20.9256104486087  38.4 20.2536437630134  36.1125 18.9097103918228  C 36.0375 18.8529244747303  36 18.7866742381223  36 18.7109596819989  C 36 18.2377437062275  36.478125 16.9316676130986  37.434375 14.7927314026122  C 37.096875 14.3195154268408  36.815625 13.8273708120386  36.590625 13.3162975582056  C 33.796875 13.0323679727428  32.4 12.7389740677645  32.4 12.4361158432709  L 32.4 8.4611016467916  C 32.4 8.15824342229793  33.796875 7.8648495173197  36.590625 7.5809199318569  C 36.834375 7.03198939996214  37.115625 6.53984478515994  37.434375 6.10448608745031  C 36.478125 3.96554987696384  36 2.65947378383494  36 2.1862578080636  C 36 2.11054325194018  36.0375 2.0442930153322  36.1125 1.98750709823964  C 36.1875 1.94964982017792  36.515625 1.76036342986939  37.096875 1.41964792731403  C 37.678125 1.07893242475866  38.23125 0.75714556123414  38.75625 0.454287336740489  C 39.28125 0.151429112246826  39.5625 0  39.6 0  C 39.75 0  40.18125 0.440090857467346  40.89375 1.32027257240204  C 41.60625 2.20045428733674  42.09375 2.83929585462805  42.35625 3.23679727427598  C 42.73125 3.19893999621427  43.0125 3.18001135718342  43.2 3.18001135718342  C 43.3875 3.18001135718342  43.66875 3.19893999621427  44.04375 3.23679727427598  C 45 1.89286390308536  45.8625 0.832860117357559  46.63125 0.0567859170925611  L 46.8 0  C 46.875 0  48.0375 0.662502366079876  50.2875 1.98750709823964  C 50.3625 2.0442930153322  50.4 2.11054325194018  50.4 2.1862578080636  C 50.4 2.65947378383494  49.921875 3.96554987696384  48.965625 6.10448608745031  C 49.284375 6.53984478515994  49.565625 7.03198939996214  49.809375 7.5809199318569  Z " fill-rule="nonzero" fill="#027db4" stroke="none" transform="matrix(1 0 0 1 40 110 )" />
    </g>
</svg>